%TF.GenerationSoftware,KiCad,Pcbnew,(5.1.9)-1*%
%TF.CreationDate,2022-07-15T12:16:53-04:00*%
%TF.ProjectId,4mm_6mm_COUPLING_LOOP,346d6d5f-366d-46d5-9f43-4f55504c494e,1.0*%
%TF.SameCoordinates,Original*%
%TF.FileFunction,Soldermask,Top*%
%TF.FilePolarity,Negative*%
%FSLAX46Y46*%
G04 Gerber Fmt 4.6, Leading zero omitted, Abs format (unit mm)*
G04 Created by KiCad (PCBNEW (5.1.9)-1) date 2022-07-15 12:16:53*
%MOMM*%
%LPD*%
G01*
G04 APERTURE LIST*
%ADD10C,1.000000*%
%ADD11C,1.905000*%
%ADD12C,0.508000*%
%ADD13C,0.254000*%
%ADD14C,0.100000*%
G04 APERTURE END LIST*
D10*
%TO.C,AE1*%
X102000000Y-100000000D02*
G75*
G03*
X102000000Y-100000000I-2000000J0D01*
G01*
%TD*%
D11*
%TO.C,AE1*%
X100000000Y-100000000D03*
D12*
X98500000Y-98598076D03*
%TD*%
D13*
X100382368Y-92413387D02*
X100760427Y-92474131D01*
X101129916Y-92574611D01*
X101486671Y-92713694D01*
X101826672Y-92889812D01*
X102146087Y-93100981D01*
X102441317Y-93344821D01*
X102709033Y-93618584D01*
X102946220Y-93919185D01*
X103150203Y-94243236D01*
X103318685Y-94587085D01*
X103449767Y-94946858D01*
X103541971Y-95318498D01*
X103594257Y-95697819D01*
X103606038Y-96080546D01*
X103577180Y-96462365D01*
X103508009Y-96838973D01*
X103399303Y-97206126D01*
X103252288Y-97559686D01*
X103068621Y-97895670D01*
X102850372Y-98210289D01*
X102600000Y-98500000D01*
X102600000Y-100000000D01*
X102579498Y-100325866D01*
X102518316Y-100646594D01*
X102417419Y-100957124D01*
X102278397Y-101252560D01*
X102103444Y-101528242D01*
X101895318Y-101779822D01*
X101657302Y-102003334D01*
X101393150Y-102195253D01*
X101107026Y-102352550D01*
X100803444Y-102472747D01*
X100487191Y-102553947D01*
X100163255Y-102594869D01*
X99836745Y-102594869D01*
X99512809Y-102553947D01*
X99196556Y-102472747D01*
X98892974Y-102352550D01*
X98606850Y-102195253D01*
X98342698Y-102003334D01*
X98104682Y-101779822D01*
X97896556Y-101528242D01*
X97721603Y-101252560D01*
X97582581Y-100957124D01*
X97481684Y-100646594D01*
X97420502Y-100325866D01*
X97400000Y-100000000D01*
X97400000Y-98500000D01*
X97149628Y-98210289D01*
X96931379Y-97895670D01*
X96747712Y-97559686D01*
X96600697Y-97206126D01*
X96491991Y-96838973D01*
X96422820Y-96462365D01*
X96393962Y-96080546D01*
X96400095Y-95881272D01*
X98605044Y-95881272D01*
X98605044Y-96118728D01*
X98645174Y-96352769D01*
X98724280Y-96576662D01*
X98840086Y-96783965D01*
X98989261Y-96968714D01*
X99167514Y-97125596D01*
X99369715Y-97250096D01*
X99590048Y-97338633D01*
X99822175Y-97388661D01*
X100059418Y-97398739D01*
X100294951Y-97368577D01*
X100521999Y-97299045D01*
X100734030Y-97192141D01*
X100924945Y-97050941D01*
X101089250Y-96879508D01*
X101222220Y-96682773D01*
X101320028Y-96466396D01*
X101379862Y-96236601D01*
X101400000Y-96000000D01*
X101379862Y-95763399D01*
X101320028Y-95533604D01*
X101222220Y-95317227D01*
X101089250Y-95120492D01*
X100924945Y-94949059D01*
X100734030Y-94807859D01*
X100521999Y-94700955D01*
X100294951Y-94631423D01*
X100059418Y-94601261D01*
X99822175Y-94611339D01*
X99590048Y-94661367D01*
X99369715Y-94749904D01*
X99167514Y-94874404D01*
X98989261Y-95031286D01*
X98840086Y-95216035D01*
X98724280Y-95423338D01*
X98645174Y-95647231D01*
X98605044Y-95881272D01*
X96400095Y-95881272D01*
X96405743Y-95697819D01*
X96458029Y-95318498D01*
X96550233Y-94946858D01*
X96681315Y-94587085D01*
X96849797Y-94243236D01*
X97053780Y-93919185D01*
X97290967Y-93618584D01*
X97558683Y-93344821D01*
X97853913Y-93100981D01*
X98173328Y-92889812D01*
X98513329Y-92713694D01*
X98870084Y-92574611D01*
X99239573Y-92474131D01*
X99617632Y-92413387D01*
X100000000Y-92393062D01*
X100382368Y-92413387D01*
D14*
G36*
X100382368Y-92413387D02*
G01*
X100760427Y-92474131D01*
X101129916Y-92574611D01*
X101486671Y-92713694D01*
X101826672Y-92889812D01*
X102146087Y-93100981D01*
X102441317Y-93344821D01*
X102709033Y-93618584D01*
X102946220Y-93919185D01*
X103150203Y-94243236D01*
X103318685Y-94587085D01*
X103449767Y-94946858D01*
X103541971Y-95318498D01*
X103594257Y-95697819D01*
X103606038Y-96080546D01*
X103577180Y-96462365D01*
X103508009Y-96838973D01*
X103399303Y-97206126D01*
X103252288Y-97559686D01*
X103068621Y-97895670D01*
X102850372Y-98210289D01*
X102600000Y-98500000D01*
X102600000Y-100000000D01*
X102579498Y-100325866D01*
X102518316Y-100646594D01*
X102417419Y-100957124D01*
X102278397Y-101252560D01*
X102103444Y-101528242D01*
X101895318Y-101779822D01*
X101657302Y-102003334D01*
X101393150Y-102195253D01*
X101107026Y-102352550D01*
X100803444Y-102472747D01*
X100487191Y-102553947D01*
X100163255Y-102594869D01*
X99836745Y-102594869D01*
X99512809Y-102553947D01*
X99196556Y-102472747D01*
X98892974Y-102352550D01*
X98606850Y-102195253D01*
X98342698Y-102003334D01*
X98104682Y-101779822D01*
X97896556Y-101528242D01*
X97721603Y-101252560D01*
X97582581Y-100957124D01*
X97481684Y-100646594D01*
X97420502Y-100325866D01*
X97400000Y-100000000D01*
X97400000Y-98500000D01*
X97149628Y-98210289D01*
X96931379Y-97895670D01*
X96747712Y-97559686D01*
X96600697Y-97206126D01*
X96491991Y-96838973D01*
X96422820Y-96462365D01*
X96393962Y-96080546D01*
X96400095Y-95881272D01*
X98605044Y-95881272D01*
X98605044Y-96118728D01*
X98645174Y-96352769D01*
X98724280Y-96576662D01*
X98840086Y-96783965D01*
X98989261Y-96968714D01*
X99167514Y-97125596D01*
X99369715Y-97250096D01*
X99590048Y-97338633D01*
X99822175Y-97388661D01*
X100059418Y-97398739D01*
X100294951Y-97368577D01*
X100521999Y-97299045D01*
X100734030Y-97192141D01*
X100924945Y-97050941D01*
X101089250Y-96879508D01*
X101222220Y-96682773D01*
X101320028Y-96466396D01*
X101379862Y-96236601D01*
X101400000Y-96000000D01*
X101379862Y-95763399D01*
X101320028Y-95533604D01*
X101222220Y-95317227D01*
X101089250Y-95120492D01*
X100924945Y-94949059D01*
X100734030Y-94807859D01*
X100521999Y-94700955D01*
X100294951Y-94631423D01*
X100059418Y-94601261D01*
X99822175Y-94611339D01*
X99590048Y-94661367D01*
X99369715Y-94749904D01*
X99167514Y-94874404D01*
X98989261Y-95031286D01*
X98840086Y-95216035D01*
X98724280Y-95423338D01*
X98645174Y-95647231D01*
X98605044Y-95881272D01*
X96400095Y-95881272D01*
X96405743Y-95697819D01*
X96458029Y-95318498D01*
X96550233Y-94946858D01*
X96681315Y-94587085D01*
X96849797Y-94243236D01*
X97053780Y-93919185D01*
X97290967Y-93618584D01*
X97558683Y-93344821D01*
X97853913Y-93100981D01*
X98173328Y-92889812D01*
X98513329Y-92713694D01*
X98870084Y-92574611D01*
X99239573Y-92474131D01*
X99617632Y-92413387D01*
X100000000Y-92393062D01*
X100382368Y-92413387D01*
G37*
M02*
