%TF.GenerationSoftware,KiCad,Pcbnew,(5.1.9)-1*%
%TF.CreationDate,2022-07-15T12:15:22-04:00*%
%TF.ProjectId,X-Band_EPR_LGR_TOP,582d4261-6e64-45f4-9550-525f4c47525f,1.0*%
%TF.SameCoordinates,Original*%
%TF.FileFunction,Profile,NP*%
%FSLAX46Y46*%
G04 Gerber Fmt 4.6, Leading zero omitted, Abs format (unit mm)*
G04 Created by KiCad (PCBNEW (5.1.9)-1) date 2022-07-15 12:15:22*
%MOMM*%
%LPD*%
G01*
G04 APERTURE LIST*
%TA.AperFunction,Profile*%
%ADD10C,0.050000*%
%TD*%
G04 APERTURE END LIST*
D10*
X106350000Y-111430000D02*
G75*
G03*
X105715000Y-110795000I-635000J0D01*
G01*
X103810000Y-110795000D02*
X105715000Y-110795000D01*
X103810000Y-110795000D02*
G75*
G03*
X103175000Y-111430000I0J-635000D01*
G01*
X103175000Y-115875000D02*
X103175000Y-111430000D01*
X106350000Y-111430000D02*
X106350000Y-115240000D01*
X94285000Y-110795000D02*
G75*
G03*
X93650000Y-111430000I0J-635000D01*
G01*
X94285000Y-110795000D02*
X96190000Y-110795000D01*
X96825000Y-111430000D02*
G75*
G03*
X96190000Y-110795000I-635000J0D01*
G01*
X96825000Y-111430000D02*
X96825000Y-115875000D01*
X93650000Y-115240000D02*
X93650000Y-111430000D01*
X103810000Y-89205000D02*
G75*
G02*
X103175000Y-88570000I0J635000D01*
G01*
X103810000Y-89205000D02*
X105715000Y-89205000D01*
X106350000Y-88570000D02*
G75*
G02*
X105715000Y-89205000I-635000J0D01*
G01*
X106350000Y-88570000D02*
X106350000Y-84760000D01*
X103175000Y-84125000D02*
X103175000Y-88570000D01*
X96825000Y-88570000D02*
G75*
G02*
X96190000Y-89205000I-635000J0D01*
G01*
X94285000Y-89205000D02*
G75*
G02*
X93650000Y-88570000I0J635000D01*
G01*
X96825000Y-88570000D02*
X96825000Y-84125000D01*
X94285000Y-89205000D02*
X96190000Y-89205000D01*
X93650000Y-84760000D02*
X93650000Y-88570000D01*
X115875000Y-100000000D02*
G75*
G03*
X115875000Y-100000000I-15875000J0D01*
G01*
M02*
